# xmcd
#
# Track frame offsets:
#	150
#	10557
#	23332
#	41320
#	55377
#	68615
#	85917
#	99740
#	112467
#	123717
#	140930
#	150777
#	166640
#	177357
#
# Disc length: 2541 seconds
#
# Revision: 0
# Processed by: cddbd v1.4PL0 Copyright (c) Steve Scherf et al.
# Submitted via: dBpowerAMP V4.0
#
DISCID=ad09eb0e
DTITLE=Various Artist - Rebels and Outlaws: Music From The Wild Side Of Life
DYEAR=1999
DGENRE=Country
TTITLE0=Faron Young - Live Fast, Love Hard, Die Young
TTITLE1=Johnny Cash - Folsom Prison Blues
TTITLE2=Marty Robbins - Big Iron
TTITLE3=Merle Haggard - Branded Man
TTITLE4=Johnny PayCheck - (Pardon Me) I've Got Someone To Kill
TTITLE5=Dick Curless - Evil Hearted Me
TTITLE6=Hank Thompson - Cocaine Blues
TTITLE7=Tex Williams - Downtown Poker Club
TTITLE8=Wanda Jackson - Riot In Cell Block Number Nine
TTITLE9=The Louvin Brothers - Knoxville Girl
TTITLE10=Spade Cooley and His Orchestra - You Clobbered Me
TTITLE11=Dusty Chaps - Shootout At The Rocket Club
TTITLE12=Hank Cochran and Willie Nelson - Ain't Life Hell
TTITLE13=Tex Ritter - Blood On The Saddle
EXTD=
EXTT0=
EXTT1=
EXTT2=
EXTT3=
EXTT4=
EXTT5=
EXTT6=
EXTT7=
EXTT8=
EXTT9=
EXTT10=
EXTT11=
EXTT12=
EXTT13=
PLAYORDER=
